<?xml version="1.0" encoding="UTF-8" standalone="no"?><!DOCTYPE svg PUBLIC "-//W3C//DTD SVG 1.1//EN" "http://www.w3.org/Graphics/SVG/1.1/DTD/svg11.dtd"><!-- Generated by graphviz version 2.40.1 (20161225.0304)
 --><!-- Title: dependency&#45;cruiser output Pages: 1 --><svg xmlns="http://www.w3.org/2000/svg" xmlns:xlink="http://www.w3.org/1999/xlink" width="657pt" height="338pt" viewBox="0.00 0.00 656.57 338.00">
<g id="graph0" class="graph" transform="scale(1 1) rotate(0) translate(4 334)">
<title>dependency-cruiser output</title>
<polygon fill="#ffffff" stroke="transparent" points="-4,4 -4,-334 652.5696,-334 652.5696,4 -4,4"/>
<g id="clust1" class="cluster">
<title>cluster_src</title>
<path fill="#ffffff" stroke="#000000" stroke-width="2" d="M20,-8C20,-8 628.5696,-8 628.5696,-8 634.5696,-8 640.5696,-14 640.5696,-20 640.5696,-20 640.5696,-310 640.5696,-310 640.5696,-316 634.5696,-322 628.5696,-322 628.5696,-322 20,-322 20,-322 14,-322 8,-316 8,-310 8,-310 8,-20 8,-20 8,-14 14,-8 20,-8"/>
<text text-anchor="middle" x="324.2848" y="-309.9" font-family="Helvetica,sans-Serif" font-weight="bold" font-size="9.00" fill="#000000">src</text>
</g>
<g id="clust2" class="cluster">
<title>cluster_src/Controller</title>
<path fill="#ffffff" stroke="#000000" stroke-width="2" d="M428.5443,-58C428.5443,-58 485.0435,-58 485.0435,-58 491.0435,-58 497.0435,-64 497.0435,-70 497.0435,-70 497.0435,-99 497.0435,-99 497.0435,-105 491.0435,-111 485.0435,-111 485.0435,-111 428.5443,-111 428.5443,-111 422.5443,-111 416.5443,-105 416.5443,-99 416.5443,-99 416.5443,-70 416.5443,-70 416.5443,-64 422.5443,-58 428.5443,-58"/>
<text text-anchor="middle" x="456.7939" y="-98.9" font-family="Helvetica,sans-Serif" font-weight="bold" font-size="9.00" fill="#000000">Controller</text>
</g>
<g id="clust3" class="cluster">
<title>cluster_src/Core</title>
<path fill="#ffffff" stroke="#000000" stroke-width="2" d="M157,-16C157,-16 396.5443,-16 396.5443,-16 402.5443,-16 408.5443,-22 408.5443,-28 408.5443,-28 408.5443,-243 408.5443,-243 408.5443,-249 402.5443,-255 396.5443,-255 396.5443,-255 157,-255 157,-255 151,-255 145,-249 145,-243 145,-243 145,-28 145,-28 145,-22 151,-16 157,-16"/>
<text text-anchor="middle" x="276.7722" y="-242.9" font-family="Helvetica,sans-Serif" font-weight="bold" font-size="9.00" fill="#000000">Core</text>
</g>
<g id="clust4" class="cluster">
<title>cluster_src/Core/physics</title>
<path fill="#ffffff" stroke="#000000" stroke-width="2" d="M286.5249,-81C286.5249,-81 388.5443,-81 388.5443,-81 394.5443,-81 400.5443,-87 400.5443,-93 400.5443,-93 400.5443,-153 400.5443,-153 400.5443,-159 394.5443,-165 388.5443,-165 388.5443,-165 286.5249,-165 286.5249,-165 280.5249,-165 274.5249,-159 274.5249,-153 274.5249,-153 274.5249,-93 274.5249,-93 274.5249,-87 280.5249,-81 286.5249,-81"/>
<text text-anchor="middle" x="337.5346" y="-152.9" font-family="Helvetica,sans-Serif" font-weight="bold" font-size="9.00" fill="#000000">physics</text>
</g>
<g id="clust5" class="cluster">
<title>cluster_src/Model</title>
<path fill="#ffffff" stroke="#000000" stroke-width="2" d="M433.7939,-211C433.7939,-211 593.8131,-211 593.8131,-211 599.8131,-211 605.8131,-217 605.8131,-223 605.8131,-223 605.8131,-283 605.8131,-283 605.8131,-289 599.8131,-295 593.8131,-295 593.8131,-295 433.7939,-295 433.7939,-295 427.7939,-295 421.7939,-289 421.7939,-283 421.7939,-283 421.7939,-223 421.7939,-223 421.7939,-217 427.7939,-211 433.7939,-211"/>
<text text-anchor="middle" x="513.8035" y="-282.9" font-family="Helvetica,sans-Serif" font-weight="bold" font-size="9.00" fill="#000000">Model</text>
</g>
<g id="clust6" class="cluster">
<title>cluster_src/View</title>
<path fill="#ffffff" stroke="#000000" stroke-width="2" d="M433.7939,-119C433.7939,-119 620.5696,-119 620.5696,-119 626.5696,-119 632.5696,-125 632.5696,-131 632.5696,-131 632.5696,-191 632.5696,-191 632.5696,-197 626.5696,-203 620.5696,-203 620.5696,-203 433.7939,-203 433.7939,-203 427.7939,-203 421.7939,-197 421.7939,-191 421.7939,-191 421.7939,-131 421.7939,-131 421.7939,-125 427.7939,-119 433.7939,-119"/>
<text text-anchor="middle" x="527.1818" y="-190.9" font-family="Helvetica,sans-Serif" font-weight="bold" font-size="9.00" fill="#000000">View</text>
</g>
<!-- src/Controller/Controller.ts -->
<g id="node1" class="node">
<title>src/Controller/Controller.ts</title>
<g id="a_node1"><a xlink:href="src/Controller/Controller.ts" xlink:title="Controller.ts">
<path fill="#ddfeff" stroke="#000000" d="M483.0943,-84.3011C483.0943,-84.3011 430.4935,-84.3011 430.4935,-84.3011 427.3931,-84.3011 424.2928,-81.2007 424.2928,-78.1004 424.2928,-78.1004 424.2928,-71.8996 424.2928,-71.8996 424.2928,-68.7993 427.3931,-65.6989 430.4935,-65.6989 430.4935,-65.6989 483.0943,-65.6989 483.0943,-65.6989 486.1947,-65.6989 489.295,-68.7993 489.295,-71.8996 489.295,-71.8996 489.295,-78.1004 489.295,-78.1004 489.295,-81.2007 486.1947,-84.3011 483.0943,-84.3011"/>
<text text-anchor="start" x="432.5443" y="-72.3" font-family="Helvetica,sans-Serif" font-size="9.00" fill="#000000">Controller.ts</text>
</a>
</g>
</g>
<!-- src/Core/CameraInitializer.ts -->
<g id="node2" class="node">
<title>src/Core/CameraInitializer.ts</title>
<g id="a_node2"><a xlink:href="src/Core/CameraInitializer.ts" xlink:title="CameraInitializer.ts">
<path fill="#ddfeff" stroke="#000000" d="M377.8307,-42.3011C377.8307,-42.3011 297.2385,-42.3011 297.2385,-42.3011 294.1382,-42.3011 291.0378,-39.2007 291.0378,-36.1004 291.0378,-36.1004 291.0378,-29.8996 291.0378,-29.8996 291.0378,-26.7993 294.1382,-23.6989 297.2385,-23.6989 297.2385,-23.6989 377.8307,-23.6989 377.8307,-23.6989 380.931,-23.6989 384.0314,-26.7993 384.0314,-29.8996 384.0314,-29.8996 384.0314,-36.1004 384.0314,-36.1004 384.0314,-39.2007 380.931,-42.3011 377.8307,-42.3011"/>
<text text-anchor="start" x="299.0362" y="-30.3" font-family="Helvetica,sans-Serif" font-size="9.00" fill="#000000">CameraInitializer.ts</text>
</a>
</g>
</g>
<!-- src/Core/CanvasInitializer.ts -->
<g id="node3" class="node">
<title>src/Core/CanvasInitializer.ts</title>
<g id="a_node3"><a xlink:href="src/Core/CanvasInitializer.ts" xlink:title="CanvasInitializer.ts">
<path fill="#ddfeff" stroke="#000000" d="M249.0677,-73.3011C249.0677,-73.3011 170.4572,-73.3011 170.4572,-73.3011 167.3569,-73.3011 164.2565,-70.2007 164.2565,-67.1004 164.2565,-67.1004 164.2565,-60.8996 164.2565,-60.8996 164.2565,-57.7993 167.3569,-54.6989 170.4572,-54.6989 170.4572,-54.6989 249.0677,-54.6989 249.0677,-54.6989 252.168,-54.6989 255.2684,-57.7993 255.2684,-60.8996 255.2684,-60.8996 255.2684,-67.1004 255.2684,-67.1004 255.2684,-70.2007 252.168,-73.3011 249.0677,-73.3011"/>
<text text-anchor="start" x="172.0102" y="-61.3" font-family="Helvetica,sans-Serif" font-size="9.00" fill="#000000">CanvasInitializer.ts</text>
</a>
</g>
</g>
<!-- src/Core/EngineInitializer.ts -->
<g id="node4" class="node">
<title>src/Core/EngineInitializer.ts</title>
<g id="a_node4"><a xlink:href="src/Core/EngineInitializer.ts" xlink:title="EngineInitializer.ts">
<path fill="#ddfeff" stroke="#000000" d="M248.0715,-228.3011C248.0715,-228.3011 171.4534,-228.3011 171.4534,-228.3011 168.353,-228.3011 165.2526,-225.2007 165.2526,-222.1004 165.2526,-222.1004 165.2526,-215.8996 165.2526,-215.8996 165.2526,-212.7993 168.353,-209.6989 171.4534,-209.6989 171.4534,-209.6989 248.0715,-209.6989 248.0715,-209.6989 251.1719,-209.6989 254.2723,-212.7993 254.2723,-215.8996 254.2723,-215.8996 254.2723,-222.1004 254.2723,-222.1004 254.2723,-225.2007 251.1719,-228.3011 248.0715,-228.3011"/>
<text text-anchor="start" x="173.2576" y="-216.3" font-family="Helvetica,sans-Serif" font-size="9.00" fill="#000000">EngineInitializer.ts</text>
</a>
</g>
</g>
<!-- src/Core/GUILoader.ts -->
<g id="node5" class="node">
<title>src/Core/GUILoader.ts</title>
<g id="a_node5"><a xlink:href="src/Core/GUILoader.ts" xlink:title="GUILoader.ts">
<path fill="#ddfeff" stroke="#000000" d="M365.8487,-73.3011C365.8487,-73.3011 309.2205,-73.3011 309.2205,-73.3011 306.1202,-73.3011 303.0198,-70.2007 303.0198,-67.1004 303.0198,-67.1004 303.0198,-60.8996 303.0198,-60.8996 303.0198,-57.7993 306.1202,-54.6989 309.2205,-54.6989 309.2205,-54.6989 365.8487,-54.6989 365.8487,-54.6989 368.949,-54.6989 372.0494,-57.7993 372.0494,-60.8996 372.0494,-60.8996 372.0494,-67.1004 372.0494,-67.1004 372.0494,-70.2007 368.949,-73.3011 365.8487,-73.3011"/>
<text text-anchor="start" x="310.7781" y="-61.3" font-family="Helvetica,sans-Serif" font-size="9.00" fill="#000000">GUILoader.ts</text>
</a>
</g>
</g>
<!-- src/Core/ISoundInterface.ts -->
<g id="node6" class="node">
<title>src/Core/ISoundInterface.ts</title>
<g id="a_node6"><a xlink:href="src/Core/ISoundInterface.ts" xlink:title="no-orphans">
<path fill="#ccffcc" stroke="#ffa500" d="M248.0914,-166.3011C248.0914,-166.3011 171.4335,-166.3011 171.4335,-166.3011 168.3332,-166.3011 165.2328,-163.2007 165.2328,-160.1004 165.2328,-160.1004 165.2328,-153.8996 165.2328,-153.8996 165.2328,-150.7993 168.3332,-147.6989 171.4335,-147.6989 171.4335,-147.6989 248.0914,-147.6989 248.0914,-147.6989 251.1917,-147.6989 254.2921,-150.7993 254.2921,-153.8996 254.2921,-153.8996 254.2921,-160.1004 254.2921,-160.1004 254.2921,-163.2007 251.1917,-166.3011 248.0914,-166.3011"/>
<text text-anchor="start" x="173.2477" y="-154.3" font-family="Helvetica,sans-Serif" font-size="9.00" fill="#ffa500">ISoundInterface.ts</text>
</a>
</g>
</g>
<!-- src/Core/InspectorDebugModel.ts -->
<g id="node7" class="node">
<title>src/Core/InspectorDebugModel.ts</title>
<g id="a_node7"><a xlink:href="src/Core/InspectorDebugModel.ts" xlink:title="InspectorDebugModel.ts">
<path fill="#ddfeff" stroke="#000000" d="M260.0876,-197.3011C260.0876,-197.3011 159.4373,-197.3011 159.4373,-197.3011 156.3369,-197.3011 153.2366,-194.2007 153.2366,-191.1004 153.2366,-191.1004 153.2366,-184.8996 153.2366,-184.8996 153.2366,-181.7993 156.3369,-178.6989 159.4373,-178.6989 159.4373,-178.6989 260.0876,-178.6989 260.0876,-178.6989 263.188,-178.6989 266.2883,-181.7993 266.2883,-184.8996 266.2883,-184.8996 266.2883,-191.1004 266.2883,-191.1004 266.2883,-194.2007 263.188,-197.3011 260.0876,-197.3011"/>
<text text-anchor="start" x="161" y="-185.3" font-family="Helvetica,sans-Serif" font-size="9.00" fill="#000000">InspectorDebugModel.ts</text>
</a>
</g>
</g>
<!-- src/Core/MaterialOptimizer.ts -->
<g id="node8" class="node">
<title>src/Core/MaterialOptimizer.ts</title>
<g id="a_node8"><a xlink:href="src/Core/MaterialOptimizer.ts" xlink:title="no-orphans">
<path fill="#ccffcc" stroke="#ffa500" d="M251.5555,-104.3011C251.5555,-104.3011 167.9694,-104.3011 167.9694,-104.3011 164.869,-104.3011 161.7686,-101.2007 161.7686,-98.1004 161.7686,-98.1004 161.7686,-91.8996 161.7686,-91.8996 161.7686,-88.7993 164.869,-85.6989 167.9694,-85.6989 167.9694,-85.6989 251.5555,-85.6989 251.5555,-85.6989 254.6559,-85.6989 257.7563,-88.7993 257.7563,-91.8996 257.7563,-91.8996 257.7563,-98.1004 257.7563,-98.1004 257.7563,-101.2007 254.6559,-104.3011 251.5555,-104.3011"/>
<text text-anchor="start" x="169.7656" y="-92.3" font-family="Helvetica,sans-Serif" font-size="9.00" fill="#ffa500">MaterialOptimizer.ts</text>
</a>
</g>
</g>
<!-- src/Core/SceneInitializer.ts -->
<g id="node9" class="node">
<title>src/Core/SceneInitializer.ts</title>
<g id="a_node9"><a xlink:href="src/Core/SceneInitializer.ts" xlink:title="SceneInitializer.ts">
<path fill="#ddfeff" stroke="#000000" d="M246.5727,-42.3011C246.5727,-42.3011 172.9522,-42.3011 172.9522,-42.3011 169.8518,-42.3011 166.7515,-39.2007 166.7515,-36.1004 166.7515,-36.1004 166.7515,-29.8996 166.7515,-29.8996 166.7515,-26.7993 169.8518,-23.6989 172.9522,-23.6989 172.9522,-23.6989 246.5727,-23.6989 246.5727,-23.6989 249.6731,-23.6989 252.7734,-26.7993 252.7734,-29.8996 252.7734,-29.8996 252.7734,-36.1004 252.7734,-36.1004 252.7734,-39.2007 249.6731,-42.3011 246.5727,-42.3011"/>
<text text-anchor="start" x="174.5077" y="-30.3" font-family="Helvetica,sans-Serif" font-size="9.00" fill="#000000">SceneInitializer.ts</text>
</a>
</g>
</g>
<!-- src/Core/SceneInitializer.ts&#45;&gt;src/Core/CameraInitializer.ts -->
<g id="edge2" class="edge">
<title>src/Core/SceneInitializer.ts-&gt;src/Core/CameraInitializer.ts</title>
<path fill="none" stroke="#000000" stroke-width="2" stroke-opacity="0.200000" d="M253.0203,-33C263.1876,-33 274.1359,-33 284.6717,-33"/>
<polygon fill="#000000" fill-opacity="0.200000" stroke="#000000" stroke-width="2" stroke-opacity="0.200000" points="284.8183,-35.1001 290.8183,-33 284.8183,-30.9001 284.8183,-35.1001"/>
</g>
<!-- src/Core/SceneInitializer.ts&#45;&gt;src/Core/GUILoader.ts -->
<g id="edge3" class="edge">
<title>src/Core/SceneInitializer.ts-&gt;src/Core/GUILoader.ts</title>
<path fill="none" stroke="#000000" stroke-width="2" stroke-opacity="0.200000" d="M248.4451,-42.3851C263.748,-46.0979 281.3486,-50.3682 296.8431,-54.1275"/>
<polygon fill="#000000" fill-opacity="0.200000" stroke="#000000" stroke-width="2" stroke-opacity="0.200000" points="296.5658,-56.221 302.8918,-55.595 297.5561,-52.1394 296.5658,-56.221"/>
</g>
<!-- src/MVC.ts -->
<g id="node10" class="node">
<title>src/MVC.ts</title>
<g id="a_node10"><a xlink:href="src/MVC.ts" xlink:title="MVC.ts">
<path fill="#ddfeff" stroke="#000000" d="M358.3339,-281.3011C358.3339,-281.3011 316.7353,-281.3011 316.7353,-281.3011 313.635,-281.3011 310.5346,-278.2007 310.5346,-275.1004 310.5346,-275.1004 310.5346,-268.8996 310.5346,-268.8996 310.5346,-265.7993 313.635,-262.6989 316.7353,-262.6989 316.7353,-262.6989 358.3339,-262.6989 358.3339,-262.6989 361.4342,-262.6989 364.5346,-265.7993 364.5346,-268.8996 364.5346,-268.8996 364.5346,-275.1004 364.5346,-275.1004 364.5346,-278.2007 361.4342,-281.3011 358.3339,-281.3011"/>
<text text-anchor="start" x="322.7859" y="-269.3" font-family="Helvetica,sans-Serif" font-size="9.00" fill="#000000">MVC.ts</text>
</a>
</g>
</g>
<!-- src/Core/SceneInitializer.ts&#45;&gt;src/MVC.ts -->
<g id="edge1" class="edge">
<title>src/Core/SceneInitializer.ts-&gt;src/MVC.ts</title>
<path fill="none" stroke="#000000" stroke-width="2" stroke-opacity="0.200000" d="M252.9503,-38.8852C258.1645,-41.2772 262.9126,-44.5474 266.5249,-49 283.2232,-69.5824 266.5426,-142.7265 274.5249,-168 285.567,-202.9613 310.6263,-238.3511 325.6021,-257.4976"/>
<polygon fill="#000000" fill-opacity="0.200000" stroke="#000000" stroke-width="2" stroke-opacity="0.200000" points="324.1623,-259.0613 329.5387,-262.4533 327.451,-256.4489 324.1623,-259.0613"/>
</g>
<!-- src/Core/physics/HavokPhysicsEngine.ts -->
<g id="node11" class="node">
<title>src/Core/physics/HavokPhysicsEngine.ts</title>
<g id="a_node11"><a xlink:href="src/Core/physics/HavokPhysicsEngine.ts" xlink:title="HavokPhysicsEngine.ts">
<path fill="#ddfeff" stroke="#000000" d="M386.3533,-138.3011C386.3533,-138.3011 288.7159,-138.3011 288.7159,-138.3011 285.6155,-138.3011 282.5152,-135.2007 282.5152,-132.1004 282.5152,-132.1004 282.5152,-125.8996 282.5152,-125.8996 282.5152,-122.7993 285.6155,-119.6989 288.7159,-119.6989 288.7159,-119.6989 386.3533,-119.6989 386.3533,-119.6989 389.4537,-119.6989 392.554,-122.7993 392.554,-125.8996 392.554,-125.8996 392.554,-132.1004 392.554,-132.1004 392.554,-135.2007 389.4537,-138.3011 386.3533,-138.3011"/>
<text text-anchor="start" x="290.5249" y="-126.3" font-family="Helvetica,sans-Serif" font-size="9.00" fill="#000000">HavokPhysicsEngine.ts</text>
</a>
</g>
</g>
<!-- src/Core/SceneInitializer.ts&#45;&gt;src/Core/physics/HavokPhysicsEngine.ts -->
<g id="edge4" class="edge">
<title>src/Core/SceneInitializer.ts-&gt;src/Core/physics/HavokPhysicsEngine.ts</title>
<path fill="none" stroke="#000000" stroke-width="2" stroke-opacity="0.200000" d="M253.0005,-39.2052C258.1395,-41.5566 262.8534,-44.7302 266.5249,-49 285.2146,-70.7353 255.5534,-91.5102 274.5249,-113 275.3932,-113.9836 276.3126,-114.9108 277.2767,-115.7849"/>
<polygon fill="#000000" fill-opacity="0.200000" stroke="#000000" stroke-width="2" stroke-opacity="0.200000" points="276.3955,-117.7541 282.4391,-119.7254 278.9439,-114.4156 276.3955,-117.7541"/>
</g>
<!-- src/MVC.ts&#45;&gt;src/Controller/Controller.ts -->
<g id="edge5" class="edge">
<title>src/MVC.ts-&gt;src/Controller/Controller.ts</title>
<path fill="none" stroke="#000000" stroke-width="2" stroke-opacity="0.200000" d="M346.2199,-262.5313C361.5668,-245.2111 393.2962,-206.6396 408.5443,-168 417.1277,-146.2493 406.0712,-136.9065 416.5443,-116 421.8719,-105.3649 430.9698,-95.7414 439.1694,-88.4947"/>
<polygon fill="#000000" fill-opacity="0.200000" stroke="#000000" stroke-width="2" stroke-opacity="0.200000" points="440.8972,-89.7831 444.117,-84.3019 438.1819,-86.5789 440.8972,-89.7831"/>
</g>
<!-- src/Model/Model.ts -->
<g id="node14" class="node">
<title>src/Model/Model.ts</title>
<g id="a_node14"><a xlink:href="src/Model/Model.ts" xlink:title="Model.ts">
<path fill="#ddfeff" stroke="#000000" d="M477.5932,-268.3011C477.5932,-268.3011 435.9946,-268.3011 435.9946,-268.3011 432.8943,-268.3011 429.7939,-265.2007 429.7939,-262.1004 429.7939,-262.1004 429.7939,-255.8996 429.7939,-255.8996 429.7939,-252.7993 432.8943,-249.6989 435.9946,-249.6989 435.9946,-249.6989 477.5932,-249.6989 477.5932,-249.6989 480.6935,-249.6989 483.7939,-252.7993 483.7939,-255.8996 483.7939,-255.8996 483.7939,-262.1004 483.7939,-262.1004 483.7939,-265.2007 480.6935,-268.3011 477.5932,-268.3011"/>
<text text-anchor="start" x="439.7916" y="-256.3" font-family="Helvetica,sans-Serif" font-size="9.00" fill="#000000">Model.ts</text>
</a>
</g>
</g>
<!-- src/MVC.ts&#45;&gt;src/Model/Model.ts -->
<g id="edge6" class="edge">
<title>src/MVC.ts-&gt;src/Model/Model.ts</title>
<path fill="none" stroke="#000000" stroke-width="2" stroke-opacity="0.200000" d="M364.5964,-269.0501C382.0082,-267.1521 404.7641,-264.6716 423.3115,-262.6498"/>
<polygon fill="#000000" fill-opacity="0.200000" stroke="#000000" stroke-width="2" stroke-opacity="0.200000" points="423.6893,-264.7211 429.4264,-261.9832 423.2341,-260.5459 423.6893,-264.7211"/>
</g>
<!-- src/View/View.ts -->
<g id="node15" class="node">
<title>src/View/View.ts</title>
<g id="a_node15"><a xlink:href="src/View/View.ts" xlink:title="View.ts">
<path fill="#ddfeff" stroke="#000000" d="M477.5932,-176.3011C477.5932,-176.3011 435.9946,-176.3011 435.9946,-176.3011 432.8943,-176.3011 429.7939,-173.2007 429.7939,-170.1004 429.7939,-170.1004 429.7939,-163.8996 429.7939,-163.8996 429.7939,-160.7993 432.8943,-157.6989 435.9946,-157.6989 435.9946,-157.6989 477.5932,-157.6989 477.5932,-157.6989 480.6935,-157.6989 483.7939,-160.7993 483.7939,-163.8996 483.7939,-163.8996 483.7939,-170.1004 483.7939,-170.1004 483.7939,-173.2007 480.6935,-176.3011 477.5932,-176.3011"/>
<text text-anchor="start" x="442.2931" y="-164.3" font-family="Helvetica,sans-Serif" font-size="9.00" fill="#000000">View.ts</text>
</a>
</g>
</g>
<!-- src/MVC.ts&#45;&gt;src/View/View.ts -->
<g id="edge7" class="edge">
<title>src/MVC.ts-&gt;src/View/View.ts</title>
<path fill="none" stroke="#000000" stroke-width="2" stroke-opacity="0.200000" d="M348.1181,-262.682C369.2817,-244.0488 416.892,-202.131 441.4691,-180.4925"/>
<polygon fill="#000000" fill-opacity="0.200000" stroke="#000000" stroke-width="2" stroke-opacity="0.200000" points="442.9471,-181.9892 446.0627,-176.4481 440.1717,-178.8368 442.9471,-181.9892"/>
</g>
<!-- src/Core/SoundLoader.ts -->
<g id="node12" class="node">
<title>src/Core/SoundLoader.ts</title>
<g id="a_node12"><a xlink:href="src/Core/SoundLoader.ts" xlink:title="SoundLoader.ts">
<path fill="#ddfeff" stroke="#000000" d="M243.0914,-135.3011C243.0914,-135.3011 176.4335,-135.3011 176.4335,-135.3011 173.3331,-135.3011 170.2328,-132.2007 170.2328,-129.1004 170.2328,-129.1004 170.2328,-122.8996 170.2328,-122.8996 170.2328,-119.7993 173.3331,-116.6989 176.4335,-116.6989 176.4335,-116.6989 243.0914,-116.6989 243.0914,-116.6989 246.1918,-116.6989 249.2921,-119.7993 249.2921,-122.8996 249.2921,-122.8996 249.2921,-129.1004 249.2921,-129.1004 249.2921,-132.2007 246.1918,-135.3011 243.0914,-135.3011"/>
<text text-anchor="start" x="177.9983" y="-123.3" font-family="Helvetica,sans-Serif" font-size="9.00" fill="#000000">SoundLoader.ts</text>
</a>
</g>
</g>
<!-- src/Core/physics/PhysicsDebugger.ts -->
<g id="node13" class="node">
<title>src/Core/physics/PhysicsDebugger.ts</title>
<g id="a_node13"><a xlink:href="src/Core/physics/PhysicsDebugger.ts" xlink:title="no-orphans">
<path fill="#ccffcc" stroke="#ffa500" d="M379.3502,-107.3011C379.3502,-107.3011 295.719,-107.3011 295.719,-107.3011 292.6186,-107.3011 289.5183,-104.2007 289.5183,-101.1004 289.5183,-101.1004 289.5183,-94.8996 289.5183,-94.8996 289.5183,-91.7993 292.6186,-88.6989 295.719,-88.6989 295.719,-88.6989 379.3502,-88.6989 379.3502,-88.6989 382.4506,-88.6989 385.5509,-91.7993 385.5509,-94.8996 385.5509,-94.8996 385.5509,-101.1004 385.5509,-101.1004 385.5509,-104.2007 382.4506,-107.3011 379.3502,-107.3011"/>
<text text-anchor="start" x="297.5265" y="-95.3" font-family="Helvetica,sans-Serif" font-size="9.00" fill="#ffa500">PhysicsDebugger.ts</text>
</a>
</g>
</g>
<!-- src/Model/Model.ts&#45;&gt;src/Core/SoundLoader.ts -->
<g id="edge8" class="edge">
<title>src/Model/Model.ts-&gt;src/Core/SoundLoader.ts</title>
<path fill="none" stroke="#000000" stroke-width="2" stroke-opacity="0.200000" d="M445.7724,-268.3729C436.5148,-275.5912 422.5817,-284.9918 408.5443,-289 351.2692,-305.3541 317.7724,-329.9579 274.5249,-289 262.6483,-277.7522 276.7493,-154.7683 266.5249,-142 263.42,-138.1226 259.4533,-135.1402 255.063,-132.8529"/>
<polygon fill="#000000" fill-opacity="0.200000" stroke="#000000" stroke-width="2" stroke-opacity="0.200000" points="255.6453,-130.8144 249.3083,-130.3122 253.949,-134.6566 255.6453,-130.8144"/>
</g>
<!-- src/Model/Pendulum.ts -->
<g id="node17" class="node">
<title>src/Model/Pendulum.ts</title>
<g id="a_node17"><a xlink:href="src/Model/Pendulum.ts" xlink:title="Pendulum.ts">
<path fill="#ddfeff" stroke="#000000" d="M591.6188,-237.3011C591.6188,-237.3011 537.9943,-237.3011 537.9943,-237.3011 534.8939,-237.3011 531.7935,-234.2007 531.7935,-231.1004 531.7935,-231.1004 531.7935,-224.8996 531.7935,-224.8996 531.7935,-221.7993 534.8939,-218.6989 537.9943,-218.6989 537.9943,-218.6989 591.6188,-218.6989 591.6188,-218.6989 594.7192,-218.6989 597.8196,-221.7993 597.8196,-224.8996 597.8196,-224.8996 597.8196,-231.1004 597.8196,-231.1004 597.8196,-234.2007 594.7192,-237.3011 591.6188,-237.3011"/>
<text text-anchor="start" x="539.8001" y="-225.3" font-family="Helvetica,sans-Serif" font-size="9.00" fill="#000000">Pendulum.ts</text>
</a>
</g>
</g>
<!-- src/Model/Model.ts&#45;&gt;src/Model/Pendulum.ts -->
<g id="edge9" class="edge">
<title>src/Model/Model.ts-&gt;src/Model/Pendulum.ts</title>
<path fill="none" stroke="#000000" stroke-width="2" stroke-opacity="0.200000" d="M484.04,-250.322C490.881,-248.2003 498.2177,-245.9739 505.0435,-244 511.6004,-242.1039 518.5845,-240.1632 525.3798,-238.317"/>
<polygon fill="#000000" fill-opacity="0.200000" stroke="#000000" stroke-width="2" stroke-opacity="0.200000" points="526.3039,-240.2428 531.5495,-236.652 525.2096,-236.1878 526.3039,-240.2428"/>
</g>
<!-- src/Model/Road.ts -->
<g id="node18" class="node">
<title>src/Model/Road.ts</title>
<g id="a_node18"><a xlink:href="src/Model/Road.ts" xlink:title="Road.ts">
<path fill="#ddfeff" stroke="#000000" d="M585.6058,-268.3011C585.6058,-268.3011 544.0073,-268.3011 544.0073,-268.3011 540.9069,-268.3011 537.8066,-265.2007 537.8066,-262.1004 537.8066,-262.1004 537.8066,-255.8996 537.8066,-255.8996 537.8066,-252.7993 540.9069,-249.6989 544.0073,-249.6989 544.0073,-249.6989 585.6058,-249.6989 585.6058,-249.6989 588.7062,-249.6989 591.8066,-252.7993 591.8066,-255.8996 591.8066,-255.8996 591.8066,-262.1004 591.8066,-262.1004 591.8066,-265.2007 588.7062,-268.3011 585.6058,-268.3011"/>
<text text-anchor="start" x="549.3023" y="-256.3" font-family="Helvetica,sans-Serif" font-size="9.00" fill="#000000">Road.ts</text>
</a>
</g>
</g>
<!-- src/Model/Model.ts&#45;&gt;src/Model/Road.ts -->
<g id="edge10" class="edge">
<title>src/Model/Model.ts-&gt;src/Model/Road.ts</title>
<path fill="none" stroke="#000000" stroke-width="2" stroke-opacity="0.200000" d="M484.0501,-259C498.3772,-259 516.0646,-259 531.2308,-259"/>
<polygon fill="#000000" fill-opacity="0.200000" stroke="#000000" stroke-width="2" stroke-opacity="0.200000" points="531.5592,-261.1001 537.5591,-259 531.5591,-256.9001 531.5592,-261.1001"/>
</g>
<!-- src/View/ViewLanguageSwitcher.ts -->
<g id="node20" class="node">
<title>src/View/ViewLanguageSwitcher.ts</title>
<g id="a_node20"><a xlink:href="src/View/ViewLanguageSwitcher.ts" xlink:title="ViewLanguageSwitcher.ts">
<path fill="#ddfeff" stroke="#000000" d="M618.1329,-176.3011C618.1329,-176.3011 511.4802,-176.3011 511.4802,-176.3011 508.3799,-176.3011 505.2795,-173.2007 505.2795,-170.1004 505.2795,-170.1004 505.2795,-163.8996 505.2795,-163.8996 505.2795,-160.7993 508.3799,-157.6989 511.4802,-157.6989 511.4802,-157.6989 618.1329,-157.6989 618.1329,-157.6989 621.2332,-157.6989 624.3336,-160.7993 624.3336,-163.8996 624.3336,-163.8996 624.3336,-170.1004 624.3336,-170.1004 624.3336,-173.2007 621.2332,-176.3011 618.1329,-176.3011"/>
<text text-anchor="start" x="513.0435" y="-164.3" font-family="Helvetica,sans-Serif" font-size="9.00" fill="#000000">ViewLanguageSwitcher.ts</text>
</a>
</g>
</g>
<!-- src/View/View.ts&#45;&gt;src/View/ViewLanguageSwitcher.ts -->
<g id="edge11" class="edge">
<title>src/View/View.ts-&gt;src/View/ViewLanguageSwitcher.ts</title>
<path fill="none" stroke="#000000" stroke-width="2" stroke-opacity="0.200000" d="M484.0501,-167C488.7216,-167 493.7504,-167 498.9326,-167"/>
<polygon fill="#000000" fill-opacity="0.200000" stroke="#000000" stroke-width="2" stroke-opacity="0.200000" points="499.0743,-169.1001 505.0743,-167 499.0742,-164.9001 499.0743,-169.1001"/>
</g>
<!-- src/Model/IModel.ts -->
<g id="node16" class="node">
<title>src/Model/IModel.ts</title>
<g id="a_node16"><a xlink:href="src/Model/IModel.ts" xlink:title="no-orphans">
<path fill="#ccffcc" stroke="#ffa500" d="M477.5932,-237.3011C477.5932,-237.3011 435.9946,-237.3011 435.9946,-237.3011 432.8943,-237.3011 429.7939,-234.2007 429.7939,-231.1004 429.7939,-231.1004 429.7939,-224.8996 429.7939,-224.8996 429.7939,-221.7993 432.8943,-218.6989 435.9946,-218.6989 435.9946,-218.6989 477.5932,-218.6989 477.5932,-218.6989 480.6935,-218.6989 483.7939,-221.7993 483.7939,-224.8996 483.7939,-224.8996 483.7939,-231.1004 483.7939,-231.1004 483.7939,-234.2007 480.6935,-237.3011 477.5932,-237.3011"/>
<text text-anchor="start" x="438.541" y="-225.3" font-family="Helvetica,sans-Serif" font-size="9.00" fill="#ffa500">IModel.ts</text>
</a>
</g>
</g>
<!-- src/View/IView.ts -->
<g id="node19" class="node">
<title>src/View/IView.ts</title>
<g id="a_node19"><a xlink:href="src/View/IView.ts" xlink:title="no-orphans">
<path fill="#ccffcc" stroke="#ffa500" d="M477.5932,-145.3011C477.5932,-145.3011 435.9946,-145.3011 435.9946,-145.3011 432.8943,-145.3011 429.7939,-142.2007 429.7939,-139.1004 429.7939,-139.1004 429.7939,-132.8996 429.7939,-132.8996 429.7939,-129.7993 432.8943,-126.6989 435.9946,-126.6989 435.9946,-126.6989 477.5932,-126.6989 477.5932,-126.6989 480.6935,-126.6989 483.7939,-129.7993 483.7939,-132.8996 483.7939,-132.8996 483.7939,-139.1004 483.7939,-139.1004 483.7939,-142.2007 480.6935,-145.3011 477.5932,-145.3011"/>
<text text-anchor="start" x="441.0426" y="-133.3" font-family="Helvetica,sans-Serif" font-size="9.00" fill="#ffa500">IView.ts</text>
</a>
</g>
</g>
<!-- src/game.ts -->
<g id="node21" class="node">
<title>src/game.ts</title>
<g id="a_node21"><a xlink:href="src/game.ts" xlink:title="game.ts">
<path fill="#ddfeff" stroke="#000000" d="M130.7993,-135.3011C130.7993,-135.3011 89.2007,-135.3011 89.2007,-135.3011 86.1004,-135.3011 83,-132.2007 83,-129.1004 83,-129.1004 83,-122.8996 83,-122.8996 83,-119.7993 86.1004,-116.6989 89.2007,-116.6989 89.2007,-116.6989 130.7993,-116.6989 130.7993,-116.6989 133.8996,-116.6989 137,-119.7993 137,-122.8996 137,-122.8996 137,-129.1004 137,-129.1004 137,-132.2007 133.8996,-135.3011 130.7993,-135.3011"/>
<text text-anchor="start" x="93.9962" y="-123.3" font-family="Helvetica,sans-Serif" font-size="9.00" fill="#000000">game.ts</text>
</a>
</g>
</g>
<!-- src/game.ts&#45;&gt;src/Core/CanvasInitializer.ts -->
<g id="edge12" class="edge">
<title>src/game.ts-&gt;src/Core/CanvasInitializer.ts</title>
<path fill="none" stroke="#000000" stroke-width="2" stroke-opacity="0.200000" d="M114.7738,-116.3329C120.4946,-105.7731 131.078,-89.147 145,-80 149.1742,-77.2575 153.7799,-74.9849 158.5532,-73.1018"/>
<polygon fill="#000000" fill-opacity="0.200000" stroke="#000000" stroke-width="2" stroke-opacity="0.200000" points="159.2822,-75.0714 164.2179,-71.0652 157.8612,-71.119 159.2822,-75.0714"/>
</g>
<!-- src/game.ts&#45;&gt;src/Core/EngineInitializer.ts -->
<g id="edge13" class="edge">
<title>src/game.ts-&gt;src/Core/EngineInitializer.ts</title>
<path fill="none" stroke="#000000" stroke-width="2" stroke-opacity="0.200000" d="M111.5504,-135.4178C114.7485,-151.7477 123.6518,-185.2659 145,-203 149.2525,-206.5326 154.1708,-209.3041 159.3588,-211.4755"/>
<polygon fill="#000000" fill-opacity="0.200000" stroke="#000000" stroke-width="2" stroke-opacity="0.200000" points="158.7197,-213.4783 165.0754,-213.6038 160.1851,-209.5422 158.7197,-213.4783"/>
</g>
<!-- src/game.ts&#45;&gt;src/Core/InspectorDebugModel.ts -->
<g id="edge14" class="edge">
<title>src/game.ts-&gt;src/Core/InspectorDebugModel.ts</title>
<path fill="none" stroke="#000000" stroke-width="2" stroke-opacity="0.200000" d="M114.7738,-135.6671C120.4946,-146.2269 131.078,-162.853 145,-172 147.2323,-173.4666 149.588,-174.7989 152.0267,-176.0091"/>
<polygon fill="#000000" fill-opacity="0.200000" stroke="#000000" stroke-width="2" stroke-opacity="0.200000" points="151.5146,-178.0807 157.8488,-178.617 153.2316,-174.2476 151.5146,-178.0807"/>
</g>
<!-- src/game.ts&#45;&gt;src/Core/SceneInitializer.ts -->
<g id="edge15" class="edge">
<title>src/game.ts-&gt;src/Core/SceneInitializer.ts</title>
<path fill="none" stroke="#000000" stroke-width="2" stroke-opacity="0.200000" d="M111.5504,-116.5822C114.7485,-100.2523 123.6518,-66.7341 145,-49 149.6102,-45.1702 155.003,-42.235 160.6736,-39.9892"/>
<polygon fill="#000000" fill-opacity="0.200000" stroke="#000000" stroke-width="2" stroke-opacity="0.200000" points="161.4567,-41.9399 166.418,-37.9655 160.0611,-37.9785 161.4567,-41.9399"/>
</g>
<!-- src/main.ts -->
<g id="node22" class="node">
<title>src/main.ts</title>
<g id="a_node22"><a xlink:href="src/main.ts" xlink:title="main.ts">
<path fill="#ddfeff" stroke="#000000" d="M63.7993,-135.3011C63.7993,-135.3011 22.2007,-135.3011 22.2007,-135.3011 19.1004,-135.3011 16,-132.2007 16,-129.1004 16,-129.1004 16,-122.8996 16,-122.8996 16,-119.7993 19.1004,-116.6989 22.2007,-116.6989 22.2007,-116.6989 63.7993,-116.6989 63.7993,-116.6989 66.8996,-116.6989 70,-119.7993 70,-122.8996 70,-122.8996 70,-129.1004 70,-129.1004 70,-132.2007 66.8996,-135.3011 63.7993,-135.3011"/>
<text text-anchor="start" x="28.4992" y="-123.3" font-family="Helvetica,sans-Serif" font-size="9.00" fill="#000000">main.ts</text>
</a>
</g>
</g>
<!-- src/main.ts&#45;&gt;src/game.ts -->
<g id="edge16" class="edge">
<title>src/main.ts-&gt;src/game.ts</title>
<path fill="none" stroke="#000000" stroke-width="2" stroke-opacity="0.200000" d="M70.2515,-126C72.3528,-126 74.488,-126 76.6227,-126"/>
<polygon fill="#000000" fill-opacity="0.200000" stroke="#000000" stroke-width="2" stroke-opacity="0.200000" points="76.9899,-128.1001 82.9899,-126 76.9899,-123.9001 76.9899,-128.1001"/>
</g>
</g>
</svg>